<svg xmlns="http://www.w3.org/2000/svg" width="32" height="32" style="clip-rule:evenodd;fill-rule:evenodd;stroke-linejoin:round;stroke-miterlimit:2"><path d="M24.366 13.244c1.472 0 4.034 1.25 4.034 2.756 0 1.55-2.562 2.756-4.034 2.756h-5.02l-4.328 7.573c-.245.431-.701.694-1.196.694h-2.42a.69.69 0 0 1-.664-.879l2.11-7.388H8.423l-1.86 2.48a.7.7 0 0 1-.552.275H4.202a.6.6 0 0 1-.58-.77L4.977 16l-1.355-4.74a.6.6 0 0 1-.022-.168c0-.336.272-.603.602-.603h1.809c.216 0 .422.104.552.275l1.86 2.48h4.43l-2.11-7.388a.686.686 0 0 1 .659-.879h2.42c.495 0 .951.268 1.196.694l4.328 7.573z" style="fill:#fff;fill-rule:nonzero;stroke-width:1.03336"/></svg>