<svg xmlns="http://www.w3.org/2000/svg" width="32" height="32" style="clip-rule:evenodd;fill-rule:evenodd;stroke-linejoin:round;stroke-miterlimit:2"><path d="M11.986 3C7.329 3 3.104 4.98 0 8.198l3.045 3.266c2.418-2.493 5.582-3.863 8.941-3.863 3.362 0 6.53 1.373 8.949 3.872L24 8.228C20.894 4.993 16.657 3 11.986 3" style="fill:#fff;fill-rule:nonzero" transform="translate(2.5 2.5)scale(1.125)"/><path d="m4.419 12.937 3.048 3.27c1.205-1.192 2.787-1.918 4.519-1.918 1.721 0 3.295.718 4.497 1.897l3.069-3.25c-1.988-2.015-4.645-3.247-7.566-3.247s-5.58 1.232-7.567 3.248M8.94 17.787 11.936 21 15 17.756c-.82-.759-1.87-1.215-3.014-1.215-1.16 0-2.222.468-3.046 1.246" style="fill:#fff;fill-rule:nonzero" transform="translate(2.5 2.5)scale(1.125)"/></svg>