<svg xmlns="http://www.w3.org/2000/svg" preserveAspectRatio="xMinYMid" viewBox="0 0 256 256"><path d="M94.129 29.773A6.775 6.775 0 0 1 100.903 23h54.193c5.215 0 8.474 5.646 5.867 10.161a6.77 6.77 0 0 1-5.867 3.387h-54.193a6.774 6.774 0 0 1-6.774-6.775m94.839 40.646v142.259c0 11.224-9.1 20.322-20.324 20.322H87.355c-11.224 0-20.323-9.098-20.323-20.322V70.419c0-11.224 9.099-20.322 20.323-20.322h81.289c11.224 0 20.324 9.098 20.324 20.322m-13.548 0a6.774 6.774 0 0 0-6.776-6.773H87.355a6.774 6.774 0 0 0-6.775 6.773v142.259a6.774 6.774 0 0 0 6.775 6.774h81.289a6.775 6.775 0 0 0 6.776-6.774zm-20.324 47.42h-54.193c-5.215 0-8.473 5.645-5.867 10.161a6.77 6.77 0 0 0 5.867 3.388h54.193c5.215 0 8.474-5.645 5.867-10.161a6.77 6.77 0 0 0-5.867-3.388m0 33.871h-54.193c-5.215 0-8.473 5.645-5.867 10.161a6.78 6.78 0 0 0 5.867 3.386h54.193c5.215 0 8.474-5.644 5.867-10.16a6.77 6.77 0 0 0-5.867-3.387m0 33.871h-54.193c-5.215 0-8.473 5.646-5.867 10.162a6.78 6.78 0 0 0 5.867 3.386h54.193c5.215 0 8.474-5.645 5.867-10.162a6.78 6.78 0 0 0-5.867-3.386" style="fill:#fff"/></svg>