<svg xmlns="http://www.w3.org/2000/svg" width="32" height="32" viewBox="0 0 256 256"><path d="M147.316 134.596a6.78 6.78 0 0 1 .296 6.597l-13.548 27.098c-2.334 4.666-8.845 5.056-11.72.702a6.78 6.78 0 0 1-.407-6.766l8.655-17.292h-16.14c-5.039.005-8.317-5.299-6.063-9.806l13.548-27.096c2.335-4.667 8.846-5.058 11.721-.703a6.78 6.78 0 0 1 .406 6.766l-8.654 17.291h16.139a6.78 6.78 0 0 1 5.767 3.209m-46.412-98.048h54.194c5.214 0 8.473-5.645 5.866-10.161A6.77 6.77 0 0 0 155.098 23h-54.194c-5.214 0-8.474 5.646-5.866 10.161a6.77 6.77 0 0 0 5.866 3.387m88.064 33.871v142.258c0 11.226-9.098 20.323-20.322 20.323h-81.29c-11.225 0-20.323-9.097-20.323-20.323V70.419c0-11.223 9.098-20.323 20.323-20.323h81.29c11.224 0 20.322 9.1 20.322 20.323m-13.548 0a6.774 6.774 0 0 0-6.774-6.774h-81.29a6.775 6.775 0 0 0-6.775 6.774v142.258a6.777 6.777 0 0 0 6.775 6.776h81.29a6.776 6.776 0 0 0 6.774-6.776z" style="fill:#fff"/></svg>