<svg xmlns="http://www.w3.org/2000/svg" width="32" height="32" viewBox="0 0 256 256"><path d="M168.646 50.096h-81.29c-11.225 0-20.323 9.1-20.323 20.323v142.258c0 11.225 9.098 20.323 20.323 20.323h81.29c11.224 0 20.322-9.098 20.322-20.323V70.419c0-11.223-9.098-20.323-20.322-20.323m6.774 162.581a6.775 6.775 0 0 1-6.774 6.775h-81.29a6.776 6.776 0 0 1-6.775-6.775V70.419a6.775 6.775 0 0 1 6.775-6.774h81.29a6.774 6.774 0 0 1 6.774 6.774zm-13.548-20.323a6.774 6.774 0 0 1-6.774 6.775h-54.194c-5.214 0-8.474-5.645-5.866-10.161a6.77 6.77 0 0 1 5.866-3.387h54.194a6.773 6.773 0 0 1 6.774 6.773M94.129 29.775A6.775 6.775 0 0 1 100.904 23h54.194c5.214 0 8.473 5.645 5.866 10.161a6.77 6.77 0 0 1-5.866 3.387h-54.194a6.774 6.774 0 0 1-6.775-6.773m67.743 128.709a6.774 6.774 0 0 1-6.774 6.774h-54.194c-5.214 0-8.474-5.645-5.866-10.162a6.77 6.77 0 0 1 5.866-3.386h54.194a6.774 6.774 0 0 1 6.774 6.774" style="fill:#fff"/></svg>