<svg xmlns="http://www.w3.org/2000/svg" width="32" height="32" viewBox="0 0 256 256"><path d="M94.129 29.775A6.775 6.775 0 0 1 100.904 23h54.194c5.214 0 8.473 5.645 5.866 10.161a6.77 6.77 0 0 1-5.866 3.387h-54.194a6.774 6.774 0 0 1-6.775-6.773m94.839 40.644v142.258c0 11.225-9.098 20.323-20.322 20.323h-81.29c-11.225 0-20.323-9.098-20.323-20.323V70.419c0-11.223 9.098-20.323 20.323-20.323h81.29c11.224 0 20.322 9.1 20.322 20.323m-13.548 0a6.774 6.774 0 0 0-6.774-6.774h-81.29a6.775 6.775 0 0 0-6.775 6.774v142.258a6.776 6.776 0 0 0 6.775 6.775h81.29a6.775 6.775 0 0 0 6.774-6.775zm-20.322 13.549h-54.194c-5.214 0-8.474 5.645-5.866 10.161a6.77 6.77 0 0 0 5.866 3.387h54.194c5.214 0 8.473-5.645 5.866-10.162a6.77 6.77 0 0 0-5.866-3.386m0 33.871h-54.194c-5.214 0-8.474 5.645-5.866 10.161a6.77 6.77 0 0 0 5.866 3.387h54.194c5.214 0 8.473-5.646 5.866-10.162a6.77 6.77 0 0 0-5.866-3.386m0 33.871h-54.194c-5.214 0-8.474 5.645-5.866 10.161a6.77 6.77 0 0 0 5.866 3.387h54.194c5.214 0 8.473-5.645 5.866-10.162a6.77 6.77 0 0 0-5.866-3.386m0 33.871h-54.194c-5.214 0-8.474 5.645-5.866 10.161a6.77 6.77 0 0 0 5.866 3.387h54.194c5.214 0 8.473-5.645 5.866-10.161a6.77 6.77 0 0 0-5.866-3.387" style="fill:#fff"/></svg>